<svg width="344" height="238" viewBox="0 0 344 238" fill="none" xmlns="http://www.w3.org/2000/svg">
<g clip-path="url(#clip0_2_33)">
<g clip-path="url(#clip1_2_33)">
<g clip-path="url(#clip2_2_33)">
<g clip-path="url(#clip3_2_33)">
<g clip-path="url(#clip4_2_33)">
<g clip-path="url(#clip5_2_33)">
<g clip-path="url(#clip6_2_33)">
<path d="M14.5655 143.385V92.6148H25.9324L31.0004 128.952H31.1452L36.2132 92.6148H47.5801V143.385H40.0505V104.945H39.9057L34.1136 143.385H27.4528L21.6607 104.945H21.5159V143.385H14.5655ZM51.4174 143.385L59.671 92.6148H70.4587L78.7124 143.385H70.7483L69.3003 133.304V133.449H60.2502L58.8022 143.385H51.4174ZM61.1914 126.558H68.3591L64.8115 101.463H64.6667L61.1914 126.558ZM82.5496 143.385V92.6148H94.2785C98.2364 92.6148 101.205 93.6785 103.184 95.806C105.163 97.9336 106.152 101.052 106.152 105.162V110.167C106.152 114.277 105.163 117.396 103.184 119.523C101.205 121.651 98.2364 122.714 94.2785 122.714H90.5137V143.385H82.5496ZM90.5137 115.461H94.2785C95.5817 115.461 96.5567 115.099 97.2035 114.374C97.8599 113.648 98.1881 112.415 98.1881 110.675V104.655C98.1881 102.914 97.8599 101.681 97.2035 100.956C96.5567 100.23 95.5817 99.8677 94.2785 99.8677H90.5137V115.461ZM133.288 144.111C129.475 144.111 126.569 143.023 124.571 140.847C122.563 138.671 121.559 135.6 121.559 131.635V104.364C121.559 100.4 122.563 97.3292 124.571 95.1533C126.569 92.9774 129.475 91.8895 133.288 91.8895C137.101 91.8895 140.012 92.9774 142.019 95.1533C144.018 97.3292 145.017 100.4 145.017 104.364V109.732H137.487V103.857C137.487 100.714 136.16 99.1424 133.505 99.1424C130.85 99.1424 129.523 100.714 129.523 103.857V132.216C129.523 135.31 130.85 136.858 133.505 136.858C136.16 136.858 137.487 135.31 137.487 132.216V124.455H145.017V131.635C145.017 135.6 144.018 138.671 142.019 140.847C140.012 143.023 137.101 144.111 133.288 144.111ZM147.696 143.385L155.949 92.6148H166.737L174.991 143.385H167.027L165.579 133.304V133.449H156.529L155.081 143.385H147.696ZM157.47 126.558H164.637L161.09 101.463H160.945L157.47 126.558Z" fill="currentColor"/>
</g>
</g>
</g>
</g>
<g clip-path="url(#clip7_2_33)">
<path d="M206.996 81.9153H187.304V154.085H206.996V81.9153Z" fill="#BF2051"/>
<path d="M231.009 81.9153H211.318V154.085H231.009V81.9153Z" fill="#BF2051" fill-opacity="0.75"/>
<path d="M255.023 81.9153H235.332V154.085H255.023V81.9153Z" fill="#BF2051" fill-opacity="0.5"/>
</g>
</g>
</g>
<path d="M125.386 75.8962V15.5455H329.933V220.455H125.386V160.104H130.087V215.745H325.231V20.2547H130.087V75.8962H125.386Z" fill="currentColor"/>
</g>
<defs>
<clipPath id="clip0_2_33">
<rect width="344" height="238" fill="white"/>
</clipPath>
<clipPath id="clip1_2_33">
<rect width="244.787" height="72.1695" fill="white" transform="translate(14.5582 81.9153)"/>
</clipPath>
<clipPath id="clip2_2_33">
<rect width="244.787" height="72.1695" fill="white" transform="translate(14.5582 81.9153)"/>
</clipPath>
<clipPath id="clip3_2_33">
<rect width="160.44" height="52.221" fill="white" transform="translate(14.5582 91.8895)"/>
</clipPath>
<clipPath id="clip4_2_33">
<rect width="160.44" height="52.221" fill="white" transform="translate(14.5582 91.8895)"/>
</clipPath>
<clipPath id="clip5_2_33">
<rect width="160.44" height="52.221" fill="white" transform="translate(14.5582 91.8895)"/>
</clipPath>
<clipPath id="clip6_2_33">
<rect width="160.44" height="52.221" fill="white" transform="translate(14.5582 91.8895)"/>
</clipPath>
<clipPath id="clip7_2_33">
<rect width="72.0415" height="72.1695" fill="white" transform="translate(187.304 81.9153)"/>
</clipPath>
</defs>
</svg>
